<svg width="49" height="49" viewBox="0 0 49 49" fill="none" xmlns="http://www.w3.org/2000/svg">
<g id="iconTelefone">
<path id="Vector" d="M28.8324 35.0196L31.983 31.869C32.4679 31.3785 33.0452 30.9886 33.6815 30.7228C34.318 30.4571 35.0008 30.3204 35.6903 30.3204C36.3802 30.3204 37.0629 30.4571 37.6994 30.7228C38.3357 30.9886 38.913 31.3785 39.3977 31.869L43.0932 35.5644C43.5838 36.049 43.9735 36.6258 44.2393 37.2622C44.5051 37.8984 44.642 38.5816 44.642 39.2711C44.642 39.9608 44.5051 40.6437 44.2393 41.2802C43.9735 41.9164 43.5838 42.4932 43.0932 42.9778L41.4113 44.6832C40.2524 45.8534 38.7536 46.6279 37.1285 46.8958C35.5034 47.1637 33.8353 46.9119 32.362 46.1757C19.6843 39.6503 9.35823 29.3334 2.82182 16.6624C2.08493 15.1878 1.83472 13.5174 2.10715 11.8916C2.37957 10.2657 3.1606 8.76798 4.33797 7.614L6.0198 5.90863C7.0051 4.92938 8.33792 4.37964 9.72714 4.37964C11.1164 4.37964 12.4492 4.92938 13.4345 5.90863L17.1537 9.62757C18.133 10.6128 18.6828 11.9453 18.6828 13.3344C18.6828 14.7235 18.133 16.056 17.1537 17.0412L14.003 20.1917C16.0862 23.0093 18.3745 25.6691 20.8491 28.15C23.3095 30.6143 25.9546 32.8873 28.7613 34.9485L28.8324 35.0196Z" stroke="white" stroke-width="3.75" stroke-linecap="round" stroke-linejoin="round"/>
<path id="Vector_2" d="M38.024 18.2019C37.6613 16.4412 36.7973 14.823 35.5366 13.5414C34.2761 12.2598 32.6719 11.3692 30.9172 10.9773" stroke="white" stroke-width="3.75" stroke-linecap="round" stroke-linejoin="round"/>
<path id="Vector_3" d="M46.9999 15.0513C46.1194 11.9466 44.4605 9.11851 42.1804 6.83448C39.9003 4.55043 37.0745 2.88607 33.9709 2" stroke="white" stroke-width="3.75" stroke-linecap="round" stroke-linejoin="round"/>
</g>
</svg>
