<svg width="45" height="45" viewBox="0 0 45 45" fill="none" xmlns="http://www.w3.org/2000/svg">
<path id="iconWhatsapp" d="M38.26 6.53906C34.0513 2.32031 28.4464 0 22.49 0C10.1953 0 0.190848 10.0045 0.190848 22.2991C0.190848 26.2266 1.2154 30.0636 3.16406 33.4487L0 45L11.8225 41.8962C15.077 43.6741 18.7433 44.6083 22.4799 44.6083H22.49C34.7746 44.6083 45 34.6038 45 22.3092C45 16.3527 42.4688 10.7578 38.26 6.53906ZM22.49 40.8516C19.1551 40.8516 15.8906 39.9576 13.048 38.2701L12.375 37.8683L5.36384 39.7065L7.23214 32.8661L6.79018 32.1629C4.93192 29.2098 3.95759 25.8047 3.95759 22.2991C3.95759 12.0837 12.2746 3.76674 22.5 3.76674C27.452 3.76674 32.1027 5.69531 35.5982 9.20089C39.0937 12.7065 41.2433 17.3571 41.2333 22.3092C41.2333 32.5346 32.7054 40.8516 22.49 40.8516ZM32.6551 26.9699C32.1027 26.6886 29.3605 25.3426 28.8482 25.1618C28.3359 24.971 27.9643 24.8806 27.5926 25.4431C27.221 26.0056 26.1562 27.2511 25.8248 27.6328C25.5033 28.0045 25.1719 28.0547 24.6194 27.7734C21.3449 26.1362 19.1953 24.8504 17.0357 21.144C16.4632 20.1596 17.6083 20.2299 18.673 18.1004C18.8538 17.7288 18.7634 17.4074 18.6228 17.1261C18.4821 16.8449 17.3672 14.1027 16.9051 12.9877C16.4531 11.9029 15.9911 12.0536 15.6496 12.0335C15.3281 12.0134 14.9565 12.0134 14.5848 12.0134C14.2132 12.0134 13.6105 12.154 13.0982 12.7065C12.5859 13.269 11.1496 14.615 11.1496 17.3571C11.1496 20.0993 13.1484 22.7511 13.4196 23.1228C13.7009 23.4944 17.3471 29.1194 22.942 31.5402C26.4777 33.067 27.8638 33.1975 29.6317 32.9364C30.7065 32.7757 32.9263 31.5904 33.3884 30.2846C33.8504 28.9788 33.8504 27.8638 33.7098 27.6328C33.5792 27.3817 33.2076 27.2411 32.6551 26.9699Z" fill="white"/>
</svg>
