<svg width="46" height="45" viewBox="0 0 46 45" fill="none" xmlns="http://www.w3.org/2000/svg">
<g id="iconInstagram">
<g id="Group">
<path id="Vector" d="M23.0865 0C16.9758 0 16.2096 0.0259234 13.8097 0.135378C11.4148 0.244631 9.77924 0.625041 8.34803 1.18115C6.86845 1.75616 5.61368 2.52555 4.36286 3.77637C3.11198 5.02719 2.34258 6.28209 1.76765 7.76167C1.2114 9.19281 0.831123 10.8284 0.721736 13.2233C0.612282 15.6231 0.586426 16.3894 0.586426 22.5001C0.586426 28.6106 0.612282 29.3769 0.721736 31.7767C0.831123 34.1716 1.2114 35.8072 1.76765 37.2383C2.34265 38.7179 3.11204 39.9727 4.36286 41.2236C5.61375 42.4744 6.86845 43.2438 8.34803 43.8188C9.77924 44.375 11.4148 44.7553 13.8097 44.8646C16.2096 44.9741 16.9758 45 23.0865 45C29.197 45 29.9633 44.9741 32.3632 44.8646C34.758 44.7554 36.3936 44.375 37.8248 43.8188C39.3043 43.2438 40.5591 42.4744 41.8101 41.2236C43.0609 39.9727 43.8303 38.7179 44.4053 37.2383C44.9614 35.8072 45.3418 34.1716 45.451 31.7767C45.5605 29.3769 45.5864 28.6106 45.5864 22.5001C45.5864 16.3894 45.5605 15.6231 45.451 13.2233C45.3418 10.8284 44.9614 9.19281 44.4053 7.76167C43.8303 6.28209 43.0609 5.02719 41.8101 3.77637C40.5591 2.52555 39.3043 1.75616 37.8248 1.18115C36.3936 0.625041 34.758 0.244631 32.3632 0.135378C29.9633 0.0259234 29.197 0 23.0865 0ZM23.0865 4.05402C29.0941 4.05402 29.8058 4.077 32.1784 4.18525C34.3721 4.28526 35.5635 4.6518 36.3562 4.95993C37.4066 5.36814 38.1561 5.85566 38.9433 6.64301C39.7308 7.43036 40.2183 8.17992 40.6265 9.23012C40.9346 10.023 41.3012 11.2144 41.4012 13.4081C41.5094 15.7806 41.5324 16.4923 41.5324 22.5C41.5324 28.5077 41.5094 29.2194 41.4012 31.5919C41.3012 33.7857 40.9346 34.977 40.6265 35.7698C40.2183 36.8201 39.7308 37.5696 38.9433 38.3569C38.1561 39.1443 37.4065 39.6319 36.3563 40.0401C35.5635 40.3482 34.3721 40.7147 32.1784 40.8147C29.8062 40.923 29.0946 40.946 23.0864 40.946C17.0782 40.946 16.3668 40.923 13.9945 40.8147C11.8007 40.7147 10.6094 40.3482 9.81661 40.0401C8.76628 39.6319 8.01678 39.1443 7.2295 38.3569C6.44216 37.5696 5.95457 36.8201 5.54636 35.7699C5.23823 34.977 4.87175 33.7856 4.77167 31.5919C4.66343 29.2194 4.64045 28.5077 4.64045 22.5C4.64045 16.4923 4.66343 15.7806 4.77167 13.4081C4.87175 11.2143 5.23823 10.023 5.54636 9.23019C5.95457 8.17986 6.44216 7.43036 7.22944 6.64308C8.01678 5.85566 8.76635 5.36814 9.81655 4.95993C10.6094 4.6518 11.8008 4.28526 13.9945 4.18525C16.3671 4.077 17.0787 4.05402 23.0864 4.05402" fill="white"/>
<path id="Vector_2" d="M23.0865 30C18.9442 30 15.5864 26.6422 15.5864 22.5C15.5864 18.3578 18.9442 15 23.0865 15C27.2286 15 30.5864 18.3578 30.5864 22.5C30.5864 26.6422 27.2286 30 23.0865 30ZM23.0865 10.9459C16.7052 10.9459 11.5323 16.1188 11.5323 22.5C11.5323 28.8811 16.7052 34.054 23.0865 34.054C29.4676 34.054 34.6404 28.8811 34.6404 22.5C34.6404 16.1188 29.4676 10.9459 23.0865 10.9459V10.9459ZM37.797 10.4894C37.797 11.9807 36.5881 13.1894 35.0969 13.1894C33.6058 13.1894 32.397 11.9807 32.397 10.4894C32.397 8.99827 33.6058 7.78938 35.0969 7.78938C36.5881 7.78938 37.797 8.99827 37.797 10.4894" fill="white"/>
</g>
</g>
</svg>
