<svg width="106" height="47" viewBox="0 0 106 47" fill="none" xmlns="http://www.w3.org/2000/svg">
<g id="logoDaRoca_header">
<path id="Rectangle 1" d="M90 0H16C7.16344 0 0 7.16344 0 16V30.375C0 39.2116 7.16344 46.375 16 46.375H90C98.8366 46.375 106 39.2116 106 30.375V16C106 7.16344 98.8366 0 90 0Z" fill="#013C31"/>
<g id="da">
<path id="Layer 1" fill-rule="evenodd" clip-rule="evenodd" d="M0 23.4226V36.2451H18.9048H37.8096V23.4226V10.6H18.9048H0V23.4226Z" fill="#013C31"/>
<path id="Layer 2" fill-rule="evenodd" clip-rule="evenodd" d="M2.398 13.0577C2.06357 13.4303 2.02553 14.4695 2.02553 23.2352C2.02553 34.6307 1.85696 33.8702 4.34632 33.7104C6.21249 33.5906 7.85721 32.6388 10.0495 30.4099C11.9114 28.5169 12.8528 26.8021 13.4053 24.2982C14.3193 20.1548 13.1188 16.3325 10.3495 14.5696C9.22016 13.8508 7.35893 13.3234 5.95075 13.3234C5.18578 13.3234 4.68436 13.2056 4.50116 12.983C4.11046 12.5084 2.85081 12.5529 2.398 13.0577ZM19.7197 13.8427C19.3135 14.142 18.4729 16.8348 18.4612 17.8737C18.4529 18.6161 18.8382 18.9971 19.5975 18.9971C20.4309 18.9971 20.6353 18.6687 21.2137 16.3995L21.718 14.4205L21.1867 13.9854C20.5626 13.4743 20.2592 13.4448 19.7197 13.8427ZM7.49779 16.5168C9.49135 17.0749 11.0125 19.8114 10.6808 22.2429C10.2313 25.5394 8.82631 27.9668 6.37363 29.6853C5.85623 30.0479 5.37506 30.3445 5.30461 30.3445C5.23395 30.3445 5.17633 27.1786 5.17633 23.3091V16.2737L5.90777 16.2751C6.31017 16.2758 7.02562 16.3845 7.49779 16.5168ZM17.5858 21.9674C14.9049 22.7931 13.2759 25.1365 13.2806 28.1604C13.2856 31.3036 15.3329 33.5218 18.2296 33.5218C19.5676 33.5218 20.6915 33.0573 21.8022 32.0453L22.6642 31.26L23.6177 32.1476C26.2115 34.5626 28.9658 34.4691 31.7495 31.8721C33.191 30.5272 35.7841 27.2347 35.7841 26.7494C35.7841 26.2493 35.0578 25.4379 34.4304 25.2371C33.8081 25.038 33.1167 25.5201 31.9203 26.9873C29.0846 30.465 27.6368 31.3574 26.3677 30.4094C25.3554 29.6535 24.8375 28.6415 24.3305 26.4285C23.7438 23.8681 23.1048 22.8296 21.786 22.2933C20.5972 21.8099 18.6005 21.6549 17.5858 21.9674ZM20.3531 25.1191C20.8666 25.316 20.9303 25.4658 20.9303 26.4762C20.9303 28.8174 19.7222 30.4419 18.0854 30.3016C16.9831 30.2072 16.3916 29.4057 16.3916 28.0058C16.3916 25.7025 18.2819 24.325 20.3531 25.1191Z" fill="#FE7411"/>
</g>
<g id="roca">
<path id="Layer 1_2" fill-rule="evenodd" clip-rule="evenodd" d="M37.8096 23.4226V36.2451H71.8963H105.983V23.4226V10.6H71.8963H37.8096V23.4226Z" fill="#013C31"/>
<path id="Layer 2_2" fill-rule="evenodd" clip-rule="evenodd" d="M41.977 12.0532C41.7419 12.1825 41.5153 12.315 41.4735 12.3475C41.4318 12.3803 41.3657 16.3738 41.3269 21.2222C41.257 29.9566 41.2604 30.0417 41.7073 30.4953C42.3277 31.1253 43.221 31.0915 43.7779 30.417C44.1797 29.9307 44.2209 29.6069 44.2209 26.9433V24.0057L44.7018 24.1506C45.5282 24.3995 46.0872 24.8404 46.9579 25.9303C47.9512 27.1739 48.7013 28.4435 49.2401 29.7936C49.846 31.3117 51.0088 31.8159 51.9145 30.9533C52.5011 30.3946 52.453 29.8196 51.6732 28.0743C50.8976 26.3388 49.9037 24.7999 48.8208 23.6583L48.057 22.8533L49.0191 22.4096C50.8946 21.545 51.6067 20.1314 51.4385 17.6082C51.218 14.3031 48.4791 11.8 45.2895 11.9887C43.8262 12.0752 43.5182 12.0685 42.9387 11.9382C42.6448 11.8723 42.212 11.924 41.977 12.0532ZM47.4652 15.6649C48.7342 16.9421 49.0069 18.8478 48.0399 19.6812C47.5569 20.0973 45.6359 20.29 44.8516 20.001C44.3113 19.8017 44.307 19.782 44.3192 17.4951C44.3312 15.2501 44.3453 15.1827 44.864 14.9249C45.6756 14.5213 46.5862 14.7804 47.4652 15.6649ZM73.8766 18.6807C73.3201 18.8575 72.5026 19.2955 72.06 19.654C71.299 20.2705 71.1815 20.3008 69.9013 20.2102C69.1568 20.1577 66.7372 20.2247 64.5246 20.359L60.5015 20.6032L59.6403 20.0604C58.2086 19.1582 57.2643 19.0596 55.7311 19.6529C52.9473 20.7302 51.8999 22.1761 51.8555 25.003C51.8273 26.8033 52.2451 27.9282 53.4128 29.1948C55.331 31.2753 58.9774 31.512 60.842 29.6767C62.165 28.3747 62.8801 25.9478 62.4142 24.3413C62.286 23.8986 62.2531 23.468 62.3411 23.3841C62.4292 23.3003 64.1233 23.1682 66.1059 23.0908L69.7103 22.9502L69.5677 24.0513C69.2367 26.6134 71.2616 29.751 73.6581 30.3887C74.2238 30.5391 74.8953 30.9507 75.443 31.4821L76.3214 32.3343L75.124 33.1767C73.9065 34.0332 73.7246 34.3431 74.183 34.7797C74.5957 35.1727 74.944 35.0728 76.1731 34.208C77.8639 33.0183 78.1587 32.2889 77.3459 31.3048C76.8027 30.647 76.8069 30.6171 77.4705 30.4585C78.4142 30.2328 79.7051 29.337 81.2314 27.8484C82.0383 27.0613 82.7273 26.4534 82.7626 26.4973C82.7979 26.5413 82.9868 26.9895 83.1825 27.4932C83.8681 29.2568 85.4989 30.3315 87.4971 30.3362C88.7328 30.339 90.4309 29.6603 91.214 28.8502L91.7249 28.3214L92.7696 29.2159C94.0228 30.289 95.6029 30.853 96.8318 30.6657C98.7395 30.3753 100.293 29.2188 102.972 26.0954C104.258 24.5955 104.361 23.8533 103.379 23.1582C102.5 22.5358 101.777 22.9441 99.9936 25.0712C98.5115 26.8389 97.1019 27.9011 96.2404 27.8995C94.9118 27.897 93.8225 26.3964 93.2491 23.7784C93.0591 22.9107 92.6941 21.9046 92.4381 21.5427C91.4743 20.1807 89.2015 19.4999 87.1687 19.9643C85.472 20.3519 82.6124 22.2989 80.4612 24.5308C79.4358 25.5947 78.2136 26.754 77.7453 27.1073C75.8179 28.5612 73.406 27.8466 72.6494 25.5973C72.3086 24.5835 72.5062 23.6652 73.2861 22.6398C74.1939 21.4465 74.9389 21.141 76.749 21.2199C78.1437 21.2808 78.2798 21.2488 78.6589 20.7718C79.002 20.3399 79.0297 20.1561 78.8327 19.6179C78.3871 18.4008 76.1122 17.9705 73.8766 18.6807ZM89.6507 22.8179C90.2183 23.0234 90.2266 23.0523 90.0993 24.3521C89.8945 26.4397 88.9587 27.4932 87.3088 27.4932C86.4367 27.4932 85.9494 26.9712 85.7618 25.8357C85.4043 23.6711 87.5048 22.041 89.6507 22.8179ZM57.4602 23.1427C58.7692 23.4242 59.0299 23.5528 59.2148 24.0077C59.7974 25.4418 59.5901 26.9105 58.6929 27.7065C57.8791 28.4287 56.2562 28.1285 55.3907 27.0955C54.6474 26.2085 54.5726 23.7696 55.268 23.1071C55.6512 22.7424 55.595 22.7416 57.4602 23.1427Z" fill="#FE7411"/>
</g>
</g>
</svg>
