<svg width="246" height="184" viewBox="0 0 246 184" fill="none" xmlns="http://www.w3.org/2000/svg">
<path id="Layer 2" fill-rule="evenodd" clip-rule="evenodd" d="M1.58497 2.25001C0.368971 4.12301 0.143972 10.348 0.239972 39.428C0.347972 72.162 0.472973 74.473 2.23097 76.231C6.30997 80.31 18.532 76.054 28.106 67.222C31.253 64.32 35.186 59.82 36.848 57.222C40.506 51.504 44 39.401 44 32.448C44 22.663 38.912 12.193 31.904 7.55501C27.315 4.51801 16.815 1.57901 13.515 2.40701C12.11 2.75901 10.752 2.40601 9.99197 1.49001C8.08297 -0.809989 3.29097 -0.376991 1.58497 2.25001ZM66.152 3.88501C64.809 4.73601 61 16.836 61 20.25C61 21.236 62.123 22.555 63.496 23.18C67.169 24.854 69.244 22.429 71.464 13.867L73.328 6.68401L71.053 4.84201C68.491 2.76701 68.051 2.68101 66.152 3.88501ZM20.442 14.106C25.511 15.513 29.424 19.75 31.541 26.125C32.98 30.457 33.052 32.077 32.039 37.344C30.54 45.135 27.137 52.62 23.289 56.587C19.951 60.027 13.667 65 12.656 65C12.295 65 12 53.3 12 39V13L14.25 13.006C15.487 13.009 18.274 13.504 20.442 14.106ZM59.5 33.905C57.85 34.323 55.15 35.376 53.5 36.243C41.911 42.34 38.324 59.284 46.315 70.188C48.557 73.248 56.493 77.005 60.685 76.99C64.421 76.977 73.577 72.65 75.13 70.164C76.319 68.26 76.531 68.325 80.932 71.938C83.444 74.001 86.97 76.267 88.767 76.973C93.25 78.735 99.985 77.785 105.366 74.632C111.019 71.319 125 54.974 125 51.678C125 48.881 122.148 46 119.379 46C117.343 46 111.363 51.708 106.494 58.3C104.95 60.389 101.721 63.251 99.317 64.66C95.512 66.89 94.581 67.069 92.115 66.048C87.792 64.257 85.27 60.006 82.882 50.481C80.468 40.86 77.714 36.696 72.717 35.117C67.682 33.526 62.77 33.075 59.5 33.905ZM69.066 46.035C72.602 47.927 70.815 58.236 66.212 62.504C59.24 68.969 50.821 62.133 53.977 52.569C56.083 46.189 63.418 43.013 69.066 46.035ZM2.74597 90.202C1.13797 91.392 0.971972 94.523 0.745972 127.713C0.474972 167.582 0.425972 167.25 6.58297 167.25C11.206 167.25 12 164.914 12 151.309C12 144.539 12.337 139.002 12.75 139.004C13.163 139.006 14.949 139.891 16.72 140.971C21.034 143.601 25.468 149.798 30.062 159.616C32.151 164.08 34.603 168.017 35.512 168.366C38.689 169.585 40.967 168.98 42.605 166.48C44.145 164.13 44.138 163.639 42.512 159.23C39.966 152.328 35.321 144.146 30.995 138.943L27.207 134.387L31.452 132.135C42.566 126.239 43.867 108.946 34.036 97.778C29.496 92.621 23.42 89.746 17.5 89.955C9.26897 90.244 8.45397 90.216 6.49997 89.568C5.38997 89.199 3.71997 89.482 2.74597 90.202ZM23.385 103.088C27.022 105.949 29 110.128 29 114.95C29 120.441 26.368 123.004 20.75 122.986C12.244 122.959 12.307 123.039 12.409 112.388C12.479 105.139 12.851 102.705 14 101.979C16.5 100.399 20.579 100.881 23.385 103.088ZM127.044 117.577C125.144 118.402 122.152 120.172 120.397 121.511C117.4 123.797 116.433 123.944 104.499 123.929C97.51 123.92 88.113 124.211 83.617 124.576C75.897 125.202 75.226 125.093 71.581 122.62C66.7 119.307 61.77 119.233 54.779 122.365C45.745 126.412 41.949 132.581 41.892 143.308C41.819 156.979 50.987 167.175 63.513 167.356C76.472 167.544 85.575 155.058 82.944 140.706C82.52 138.393 82.26 136.412 82.365 136.305C82.471 136.198 88.956 135.793 96.778 135.406L111 134.702V141.237C111 146.447 111.566 148.855 113.793 153.118C116.799 158.871 123.478 164.746 128.057 165.661C129.573 165.965 132.318 167.771 134.157 169.676L137.5 173.139L134.828 175.097C128.655 179.617 127.674 180.707 128.302 182.344C129.296 184.936 132.308 184.309 137.347 180.461C142.996 176.148 144.069 172.937 141.171 169.017L139.085 166.196L141.731 165.531C145.277 164.641 149.282 161.746 156.59 154.788L162.68 148.99L163.815 152.745C167.665 165.491 184.906 169.168 195.089 159.414L197.677 156.935L201.512 160.447C206.344 164.873 210.78 166.349 217.56 165.787C221.322 165.475 224.144 164.482 227.126 162.422C232.341 158.82 246 142.618 246 140.035C246 137.452 241.485 134.06 238.936 134.727C237.814 135.021 234.781 137.764 232.198 140.824C221.453 153.549 217.403 156.24 212.231 154.093C208.218 152.426 205.434 147.499 203.528 138.693C202.318 133.102 201.023 129.957 198.967 127.615C194.591 122.631 185.98 120.711 178.116 122.967C172.471 124.586 161.143 132.982 154.136 140.742C145.026 150.83 139.514 155 135.286 155C129.929 155 126.07 152.413 123.812 147.307C121.421 141.903 121.891 138.142 125.56 133.332C129.398 128.301 133.132 126.748 139.481 127.541C144.408 128.157 144.942 128.019 146.432 125.745C148.284 122.918 147.684 120.3 144.605 117.772C141.926 115.573 131.92 115.462 127.044 117.577ZM190.714 135.177C193.784 137.726 189.655 150.093 184.915 152.544C180.986 154.575 179.284 154.374 176.455 151.545C171.853 146.943 174.043 137.229 180.315 134.425C183.699 132.911 188.393 133.251 190.714 135.177ZM66 135.876C68.973 136.43 69.711 137.135 70.899 140.561C73.601 148.348 70.134 156 63.904 156C57.129 156 52.347 149.485 53.249 141.484C53.929 135.45 55.545 133.635 59.444 134.526C61.125 134.91 64.075 135.518 66 135.876Z" fill="#FF7510"/>
</svg>
