<svg width="50" height="38" viewBox="0 0 50 38" fill="none" xmlns="http://www.w3.org/2000/svg">
<path id="Vector" d="M2.73686 0.747831C2.80719 0.7464 2.87756 0.747796 2.94781 0.752018L2.98535 0.754274L3.02281 0.75089C3.18002 0.736683 3.3382 0.736683 3.49541 0.75089L3.51787 0.752919H3.54041H16.038C16.5196 0.76242 16.9894 0.904238 17.3958 1.16289C17.8035 1.42231 18.1317 1.7892 18.3442 2.22316L18.3475 2.22994L18.351 2.23662L20.7265 6.73745L20.8672 7.00407H21.1687H48.9238C49.2035 7.00407 49.3433 7.11396 49.416 7.23626C49.4995 7.37669 49.5394 7.61374 49.4471 7.91647C49.4468 7.91758 49.4464 7.9187 49.4461 7.91981L44.3849 23.5406L44.3848 23.5406L44.3826 23.5477C44.2971 23.8258 44.0647 24.1349 43.7348 24.379C43.4055 24.6226 43.0385 24.7575 42.7351 24.7575H20.8561C20.5878 24.7575 20.22 24.6257 19.876 24.3762C19.5326 24.127 19.2916 23.8175 19.2086 23.5477L19.2087 23.5477L19.2058 23.5389L16.6428 15.725L14.0799 7.91103L14.0776 7.90423L14.0752 7.8975L13.5126 6.33471L13.3936 6.00407H13.0422H3.66544H3.62569L3.58644 6.01035C2.88843 6.12203 2.17464 5.95185 1.6021 5.53726C1.02956 5.12266 0.64517 4.4976 0.533488 3.79959C0.421806 3.10158 0.591983 2.38779 1.00658 1.81525C1.41972 1.24473 2.04183 0.861035 2.73686 0.747831ZM19.7933 34.6342C19.7933 33.1601 20.9447 32.0087 22.4189 32.0087C23.8931 32.0087 25.0445 33.1601 25.0445 34.6342C25.0445 36.1084 23.8931 37.2598 22.4189 37.2598C20.9447 37.2598 19.7933 36.1084 19.7933 34.6342ZM38.5468 34.6342C38.5468 33.1601 39.6982 32.0087 41.1723 32.0087C42.6465 32.0087 43.7979 33.1601 43.7979 34.6342C43.7979 36.1084 42.6465 37.2598 41.1723 37.2598C39.6982 37.2598 38.5468 36.1084 38.5468 34.6342Z" fill="white" stroke="black"/>
</svg>
