<svg width="33" height="32" viewBox="0 0 33 32" fill="none" xmlns="http://www.w3.org/2000/svg">
<g id="lupa">
<path id="Rectangle 5" d="M0 0H24C28.9706 0 33 4.02944 33 9V23C33 27.9706 28.9706 32 24 32H0V0Z" fill="#CC5D0C"/>
<path id="lupa_2" d="M14.7065 2.03345C8.25121 2.03345 3 7.28466 3 13.74C3 20.1953 8.25121 25.4465 14.7065 25.4465C16.6799 25.4465 18.6198 24.9782 20.2587 24.0751C20.39 24.2331 20.5356 24.3787 20.6936 24.51L24.0383 27.8547C24.3471 28.2022 24.7237 28.4829 25.145 28.6796C25.5663 28.8763 26.0233 28.9848 26.488 28.9985C26.9527 29.0122 27.4153 28.9308 27.8474 28.7592C28.2795 28.5876 28.672 28.3295 29.0008 28.0008C29.3295 27.672 29.5876 27.2795 29.7592 26.8474C29.9308 26.4153 30.0122 25.9527 29.9985 25.488C29.9848 25.0233 29.8763 24.5663 29.6796 24.145C29.4829 23.7237 29.2022 23.3471 28.8547 23.0383L25.51 19.6936C25.347 19.5306 25.1677 19.3849 24.9748 19.2588C25.8779 17.6198 26.4465 15.7133 26.4465 13.7065C26.4465 7.25121 21.1953 2 14.74 2L14.7065 2.03345ZM14.7065 5.37817C19.3557 5.37817 23.0683 9.0908 23.0683 13.74C23.0683 15.9475 22.2656 17.9878 20.8608 19.4929C20.8274 19.5263 20.7939 19.5598 20.7605 19.5932C20.6025 19.7245 20.4569 19.8701 20.3256 20.028C18.854 21.3659 16.8471 22.1352 14.6731 22.1352C10.0239 22.1352 6.31127 18.4226 6.31127 13.7734C6.31127 9.12425 10.0239 5.41161 14.6731 5.41161L14.7065 5.37817Z" fill="black"/>
</g>
</svg>
