<svg width="46" height="50" viewBox="0 0 46 50" fill="none" xmlns="http://www.w3.org/2000/svg">
<path id="Vector" d="M15.5 22.5V10C15.5 5.85788 18.8577 2.5 23 2.5C27.1423 2.5 30.5 5.85788 30.5 10V22.4183M19 47.5H27C32.6005 47.5 35.4007 47.5 37.54 46.41C39.4215 45.4512 40.9512 43.9215 41.91 42.04C43 39.9007 43 37.1005 43 31.5V25.5C43 22.6997 43 21.2995 42.455 20.23C41.9757 19.2892 41.2108 18.5243 40.27 18.045C39.2005 17.5 37.8002 17.5 35 17.5H11C8.19975 17.5 6.7996 17.5 5.73005 18.045C4.78923 18.5243 4.02432 19.2892 3.54497 20.23C3 21.2995 3 22.6997 3 25.5V31.5C3 37.1005 3 39.9007 4.08992 42.04C5.04867 43.9215 6.57848 45.4512 8.4601 46.41C10.5992 47.5 13.3995 47.5 19 47.5Z" stroke="white" stroke-width="5" stroke-linecap="round" stroke-linejoin="round"/>
</svg>
