<svg width="195" height="166" viewBox="0 0 195 166" fill="none" xmlns="http://www.w3.org/2000/svg">
<g id="imgBrocolis" filter="url(#filter0_d_13_90)">
<path id="Vector" d="M31.591 35.9939L12.4533 59.6362C12.4533 59.6362 6.71346 66.8292 8.19565 73.935C9.86675 81.8691 14.0808 82.3486 14.0808 82.3486C14.0808 82.3486 13.8047 88.5098 17.4375 93.7556C21.0703 99.0014 22.7996 101.486 35.9939 105.482C49.1883 109.478 72.9905 113.969 72.9905 113.969L79.1227 137.771C79.1227 137.771 80.7647 143.656 88.0739 146.722C95.3831 149.788 101.094 148.989 101.094 148.989C101.094 148.989 104.116 157.344 114.158 159.669C122.847 161.689 129.779 157.315 129.779 157.315C129.779 157.315 137.088 161.791 146.504 159.669C157.432 157.214 159.931 150.486 159.931 150.486C159.931 150.486 168.882 149.541 174.767 141.055C180.653 132.569 176.409 122.92 176.409 122.92C176.409 122.92 181.626 115.189 180.173 106.427C178.865 98.4928 175.712 95.79 175.712 95.79L156.85 82.6247C156.85 82.6247 164.857 79.3261 167.691 65.1872C170.524 51.0483 163.448 43.9861 163.448 43.9861C163.448 43.9861 166.223 36.0084 161.558 28.9027C157.083 22.073 150.718 25.3716 147.652 22.3055C143.874 18.5273 122.44 16.1733 122.44 16.1733L97.7227 36.7059L31.591 35.9939Z" fill="#2F7C31"/>
<path id="Vector_2" d="M40.6875 12.2789C40.6875 12.2789 48.0839 4.17048 58.0088 4.88251C67.9336 5.59454 69.7355 11.5814 69.7355 11.5814C69.7355 11.5814 75.8241 10.5788 79.6458 12.2789C87.4636 15.7664 86.6353 19.8206 89.0039 19.5445C91.3725 19.2684 91.3725 9.21282 102.416 5.71079C113.46 2.20876 119.461 7.52719 121.83 7.38188C124.199 7.23657 127.134 4.43204 135.518 7.10579C143.06 9.51797 144.673 14.5167 145.022 16.0425C145.429 17.888 145.429 19.9514 147.667 22.32C149.904 24.6886 147.507 33.2766 144.295 36.7641C141.084 40.2516 134.821 40.6149 134.821 40.6149C134.821 40.6149 136.289 52.6758 126.262 59.302C119.214 63.952 111.629 62.1211 111.629 62.1211C111.629 62.1211 103.535 69.1252 94.4531 66.1898C85.3711 63.2545 84.3975 59.4909 89.4253 55.2914C94.4531 51.1064 96.6909 42.998 90.6895 41.4577C84.6881 39.9174 78.5414 42.8527 76.4489 49.4208C74.3564 55.9889 74.2111 61.7142 67.3669 66.5967C60.5227 71.4792 55.4949 69.9534 48.6506 71.7699C41.8064 73.5863 37.2 79.4569 31.4747 79.5877C25.7494 79.733 21.2738 75.5334 18.3384 75.9549C15.4031 76.3763 9.40173 77.7713 9.40173 77.7713C9.40173 77.7713 6.74251 72.7434 8.42814 66.5967C10.1138 60.45 12.4678 59.6217 12.4678 59.6217C12.4678 59.6217 -1.14796 46.4564 11.3634 26.3742C22.6688 8.22469 40.6875 12.2789 40.6875 12.2789Z" fill="#709921"/>
<path id="Vector_3" d="M115.829 106.412C115.829 106.412 121.132 104.175 124.635 98.1731C128.122 92.1717 129.938 87.6961 135.533 84.7608C141.113 81.8255 147.405 82.1016 155.513 82.523C163.622 82.9444 165.671 85.4147 167.662 87.4055C171.57 91.3144 175.77 95.79 175.77 95.79C175.77 95.79 168.926 96.3422 165.293 101.937C161.66 107.531 159.422 115.204 159.422 115.204C159.422 115.204 154.54 117.02 149.367 119.81C144.194 122.6 132.743 130.011 125.201 128.049C117.66 126.088 113.751 117.427 113.751 116.453C113.736 115.494 115.829 106.412 115.829 106.412Z" fill="#709921"/>
<path id="Vector_4" d="M51.3534 118.909C51.0047 119.955 14.6184 160.89 14.6184 160.89C14.6184 160.89 18.9923 167.531 22.8431 170.684C26.6939 173.837 32.9423 178.545 36.9093 179.621C41.2106 180.783 44.5237 182.062 48.3745 176.991C52.2253 171.919 55.1897 165.278 65.6957 154.075C76.2018 142.871 83.7145 136.056 92.099 132.031C100.484 128.006 112.559 125.216 115.712 124.867C118.866 124.518 122.876 124.17 122.876 124.17C122.876 124.17 125.245 119.389 124.446 115.596C123.559 111.368 117.63 109.478 117.63 109.478L87.5508 113.852L91.1109 112.661C91.1109 112.661 89.7014 110.583 91.5759 107.895C93.2034 105.555 100.672 96.5166 103.128 93.1889C105.584 89.8612 110.568 83.4094 110.467 82.3631C110.292 80.445 105.744 77.9892 104.349 77.1173C102.954 76.2455 99.975 75.0248 99.975 75.0248L67.7883 108.403L66.0445 106.834C66.0445 106.834 63.952 106.732 62.7168 103.506C61.845 101.239 61.4962 94.4095 60.7987 88.4662C60.3628 84.7462 60.1012 80.4159 60.1012 80.4159C60.1012 80.4159 55.0298 78.1491 51.7022 78.4978C48.3745 78.8466 44.5383 82.523 44.5383 82.523L51.3534 118.909Z" fill="#9FB525"/>
<path id="Vector_5" d="M39.1036 83.5692C38.5805 84.9642 39.4524 91.2708 39.4524 99.6553C39.4524 108.04 38.9728 115.814 34.9041 120.813C29.6583 127.279 20.7361 136.376 13.921 142.493C10.9711 145.138 9.02394 146.17 8.84956 146.867C8.67519 147.565 10.1138 153.93 11.4797 156.661C13.95 161.602 18.4838 166.092 18.4838 166.092C18.4838 166.092 36.6624 145.647 44.3639 137.771C52.0655 129.895 56.2505 124.649 58.0088 126.407C59.7525 128.151 53.9546 134.966 49.7841 139.703C43.4921 146.867 25.8511 173.009 25.8511 173.009C25.8511 173.009 26.8247 174.026 28.801 175.378C30.5447 176.584 31.9107 177.209 31.9107 177.209C31.9107 177.209 41.2107 162.082 54.158 148.437C67.1053 134.792 74.4436 128.5 83.3658 125.521C92.288 122.542 124.46 115.552 124.46 115.552C124.46 115.552 123.065 110.655 122.193 108.563C121.321 106.47 119.389 104.015 119.389 104.015C119.389 104.015 103.303 108.214 100.498 109.086C97.6936 109.958 81.7819 111.891 81.0844 110.132C80.3869 108.389 91.7503 94.2206 95.078 89.8467C98.4057 85.4728 104.422 77.0737 104.422 77.0737C104.422 77.0737 100.861 74.6325 96.4875 73.5862C92.1136 72.54 90.5443 73.4119 90.5443 73.4119C90.5443 73.4119 79.8783 87.7542 76.725 91.9537C73.5717 96.1533 67.4541 105.25 61.8596 106.819C56.265 108.389 54.87 106.994 54.158 102.794C53.4605 98.5945 51.7022 78.4833 51.7022 78.4833C51.7022 78.4833 46.1077 78.832 44.0007 79.8783C41.8936 80.9245 39.6267 82.1742 39.1036 83.5692Z" fill="#B7D118"/>
<path id="Vector_6" d="M149.614 109.173C149.614 109.173 152.869 103.288 155.673 105.744C158.492 108.2 153.13 115.945 151.982 116.206C150.834 116.468 141.883 113.489 143.191 110.147C144.528 106.805 149.614 109.173 149.614 109.173Z" fill="#2F7C31"/>
<path id="Vector_7" d="M65.071 50.1183C68.4131 50.002 75.4317 43.1433 72.4674 39.5831C70.0697 36.7059 65.071 42.2859 65.071 42.2859C65.071 42.2859 59.7816 36.8367 57.6891 39.4669C54.7102 43.2741 62.6152 50.2055 65.071 50.1183Z" fill="#2F7C31"/>
<path id="Vector_8" d="M46.4419 56.977C46.4419 56.977 49.3481 51.0047 52.6758 53.5477C56.0179 56.0906 50.22 64.7077 48.4617 65.2308C46.7034 65.7539 37.2581 60.3483 39.7575 56.5266C41.7919 53.4605 46.4419 56.977 46.4419 56.977Z" fill="#2F7C31"/>
<path id="Vector_9" d="M20.8669 51.5278C21.9131 51.7022 29.3967 47.4881 27.2751 43.7972C25.1536 40.1063 20.8669 44.7708 20.8669 44.7708C20.8669 44.7708 16.8126 41.1816 15.0689 43.3613C12.2644 46.8778 19.2975 51.2663 20.8669 51.5278Z" fill="#2F7C31"/>
<path id="Vector_10" d="M22.1892 63.6614C22.1892 63.6614 25.0083 57.8634 27.9872 60.0577C30.9806 62.2519 25.793 71.0433 24.9938 71.392C24.2091 71.7408 13.6448 68.7619 15.9408 64.5333C17.5392 61.6416 22.1892 63.6614 22.1892 63.6614Z" fill="#2F7C31"/>
<path id="Vector_11" d="M115.102 57.1223C117.412 56.1197 121.278 48.3019 117.66 46.718C114.739 45.4392 113.213 50.2055 113.213 50.2055C113.213 50.2055 109.972 47.3573 107.749 49.6969C104.334 53.2861 113.707 57.7326 115.102 57.1223Z" fill="#2F7C31"/>
<path id="Vector_12" d="M131.522 26.7084C131.522 26.7084 131.711 23.3081 134.327 23.4825C137.204 23.6859 136.826 30.7772 134.632 32.1141C132.438 33.4509 125.201 29.6147 126.843 26.9409C127.89 25.2408 131.711 26.4033 131.522 26.7084Z" fill="#2F7C31"/>
</g>
<defs>
<filter id="filter0_d_13_90" x="0" y="0" width="200" height="240" filterUnits="userSpaceOnUse" color-interpolation-filters="sRGB">
<feFlood flood-opacity="0" result="BackgroundImageFix"/>
<feColorMatrix in="SourceAlpha" type="matrix" values="0 0 0 0 0 0 0 0 0 0 0 0 0 0 0 0 0 0 127 0" result="hardAlpha"/>
<feOffset dx="10" dy="50"/>
<feGaussianBlur stdDeviation="2"/>
<feComposite in2="hardAlpha" operator="out"/>
<feColorMatrix type="matrix" values="0 0 0 0 0 0 0 0 0 0 0 0 0 0 0 0 0 0 0.25 0"/>
<feBlend mode="normal" in2="BackgroundImageFix" result="effect1_dropShadow_13_90"/>
<feBlend mode="normal" in="SourceGraphic" in2="effect1_dropShadow_13_90" result="shape"/>
</filter>
</defs>
</svg>
