<svg width="213" height="213" viewBox="0 0 213 213" fill="none" xmlns="http://www.w3.org/2000/svg">
<g id="imgCenoura" clip-path="url(#clip0_13_19)">
<path id="Vector" d="M142.895 96.6498C135.134 107.332 72.2609 175.658 61.5788 167.897C50.8967 160.137 96.4507 79.2266 104.211 68.5448C111.972 57.863 124.041 59.4627 134.723 67.2237C145.405 74.9846 150.656 85.9677 142.895 96.6498Z" fill="#FF860D"/>
<g id="Group">
<path id="Vector_2" d="M134.464 90.5248C126.703 101.207 67.604 172.275 61.5791 167.898C55.5541 163.52 104.882 85.352 112.642 74.6702C120.403 63.9883 128.698 62.8464 134.723 67.2238C140.748 71.6012 142.225 79.8427 134.464 90.5248Z" fill="#E56107"/>
<path id="Vector_3" d="M116.62 76.678C116.189 77.2706 115.357 77.4041 114.761 76.9707L110.302 73.7312C109.707 73.2992 109.575 72.4653 110.006 71.8726C110.438 71.278 111.27 71.1479 111.865 71.5799L116.324 74.8194C116.92 75.2526 117.052 76.0833 116.62 76.678Z" fill="#E56107"/>
</g>
<path id="Vector_4" d="M117.239 87.9857C116.807 88.5803 115.979 88.7133 115.382 88.2799L110.923 85.0404C110.327 84.6069 110.195 83.7764 110.627 83.1818C111.058 82.5891 111.89 82.4556 112.486 82.8891L116.945 86.1285C117.54 86.5639 117.668 87.395 117.239 87.9857Z" fill="#FF860D"/>
<path id="Vector_5" d="M105.27 92.2995C104.839 92.8922 104.007 93.0257 103.411 92.5923L98.9521 89.3528C98.3575 88.9208 98.2254 88.0869 98.656 87.4942C99.088 86.8996 99.9205 86.7695 100.515 87.2015L104.974 90.4409C105.569 90.8763 105.701 91.7069 105.27 92.2995Z" fill="#E56107"/>
<path id="Vector_6" d="M105.888 103.61C105.457 104.202 104.629 104.335 104.032 103.902L99.5734 100.662C98.9768 100.229 98.8452 99.3983 99.2758 98.8056C99.7064 98.2129 100.538 98.0794 101.135 98.5129L105.594 101.752C106.19 102.186 106.318 103.017 105.888 103.61Z" fill="#FF860D"/>
<path id="Vector_7" d="M93.92 107.921C93.4909 108.512 92.6575 108.648 92.0609 108.214L87.6022 104.975C87.0075 104.543 86.8769 103.707 87.3061 103.116C87.7381 102.521 88.5706 102.391 89.1652 102.823L93.6239 106.063C94.2191 106.498 94.3506 107.329 93.92 107.921Z" fill="#E56107"/>
<path id="Vector_8" d="M94.5379 119.231C94.1087 119.822 93.2773 119.959 92.6807 119.526L88.222 116.286C87.6254 115.853 87.4967 115.018 87.9259 114.427C88.3579 113.833 89.1884 113.701 89.785 114.135L94.2438 117.374C94.8403 117.808 94.9699 118.637 94.5379 119.231Z" fill="#FF860D"/>
<path id="Vector_9" d="M83.8819 126.322C83.503 126.844 82.7708 126.961 82.2475 126.581L78.3199 123.728C77.8002 123.35 77.6839 122.616 78.0627 122.094C78.4416 121.573 79.1778 121.458 79.6954 121.834L83.6231 124.688C84.1499 125.067 84.2623 125.799 83.8819 126.322Z" fill="#E56107"/>
<path id="Vector_10" d="M80.0905 133.123C79.713 133.643 78.982 133.759 78.4604 133.38L74.5308 130.525C74.0112 130.147 73.8949 129.413 74.271 128.895C74.65 128.373 75.3861 128.259 75.9038 128.635L79.8333 131.49C80.3565 131.867 80.4709 132.6 80.0905 133.123Z" fill="#FF860D"/>
<path id="Vector_11" d="M73.2554 142.017C72.9493 142.438 72.3632 142.533 71.9418 142.227L68.7859 139.934C68.3684 139.631 68.2748 139.039 68.5795 138.62C68.8829 138.202 69.4742 138.109 69.8917 138.412L73.0476 140.705C73.4678 141.013 73.5575 141.601 73.2554 142.017Z" fill="#E56107"/>
<path id="Vector_12" d="M73.6908 150.013C73.3875 150.43 72.8 150.527 72.3786 150.221L69.2227 147.928C68.8052 147.624 68.7116 147.033 69.0149 146.615C69.3211 146.194 69.9096 146.104 70.3271 146.408L73.483 148.701C73.9044 149.007 73.997 149.591 73.6908 150.013Z" fill="#FF860D"/>
<path id="Vector_13" d="M131.323 87.3608C130.893 87.9535 131.023 88.786 131.622 89.2209L136.08 92.4603C136.675 92.8923 137.509 92.7603 137.939 92.1676C138.371 91.573 138.238 90.741 137.643 90.309L133.185 87.0695C132.586 86.6346 131.756 86.7662 131.323 87.3608Z" fill="#E56107"/>
<path id="Vector_14" d="M120.378 90.266C119.946 90.8606 120.077 91.6911 120.674 92.1246L125.133 95.3641C125.727 95.7961 126.56 95.666 126.992 95.0713C127.422 94.4786 127.29 93.6448 126.696 93.2127L122.237 89.9733C121.639 89.5418 120.807 89.6753 120.378 90.266Z" fill="#FF860D"/>
<path id="Vector_15" d="M119.974 102.982C119.543 103.575 119.673 104.408 120.272 104.842L124.731 108.082C125.325 108.514 126.159 108.382 126.59 107.789C127.022 107.195 126.888 106.363 126.294 105.931L121.835 102.691C121.235 102.258 120.404 102.39 119.974 102.982Z" fill="#E56107"/>
<path id="Vector_16" d="M109.026 105.89C108.596 106.482 108.727 107.313 109.324 107.746L113.783 110.986C114.377 111.418 115.21 111.288 115.64 110.695C116.071 110.102 115.939 109.269 115.344 108.837L110.886 105.597C110.289 105.164 109.457 105.297 109.026 105.89Z" fill="#FF860D"/>
<path id="Vector_17" d="M108.624 118.604C108.195 119.195 108.323 120.029 108.922 120.464L113.381 123.704C113.975 124.136 114.811 124.002 115.24 123.411C115.672 122.816 115.538 121.984 114.944 121.552L110.485 118.313C109.885 117.88 109.054 118.012 108.624 118.604Z" fill="#E56107"/>
<path id="Vector_18" d="M97.6764 121.512C97.2472 122.102 97.376 122.937 97.9725 123.37L102.431 126.61C103.026 127.042 103.861 126.908 104.29 126.317C104.722 125.722 104.589 124.89 103.994 124.458L99.5356 121.219C98.939 120.785 98.1085 120.917 97.6764 121.512Z" fill="#FF860D"/>
<path id="Vector_19" d="M94.2274 133.839C93.8484 134.36 93.9629 135.093 94.4845 135.472L98.4141 138.327C98.9337 138.704 99.6681 138.588 100.047 138.067C100.426 137.545 100.307 136.81 99.7897 136.434L95.8601 133.579C95.3382 133.196 94.6077 133.315 94.2274 133.839Z" fill="#E56107"/>
<path id="Vector_20" d="M88.5597 139.276C88.1822 139.796 88.2979 140.527 88.8212 140.907L92.7489 143.761C93.2685 144.138 94.0028 144.022 94.3789 143.504C94.7579 142.983 94.6395 142.247 94.1218 141.871L90.1942 139.017C89.6705 138.634 88.9401 138.753 88.5597 139.276Z" fill="#FF860D"/>
<path id="Vector_21" d="M82.5846 148.795C82.2784 149.216 82.3696 149.803 82.791 150.109L85.9469 152.402C86.3644 152.705 86.954 152.61 87.2588 152.191C87.5621 151.774 87.4704 151.184 87.0527 150.88L83.8968 148.587C83.4744 148.283 82.8867 148.379 82.5846 148.795Z" fill="#E56107"/>
<path id="Vector_22" d="M74.8437 150.85C74.5403 151.268 74.6321 151.858 75.0535 152.164L78.2094 154.457C78.6269 154.76 79.2182 154.667 79.5216 154.249C79.8277 153.828 79.7312 153.24 79.3137 152.937L76.1579 150.644C75.7364 150.338 75.1499 150.429 74.8437 150.85Z" fill="#FF860D"/>
<path id="Vector_23" d="M146.564 85.7441C146.406 78.8435 141.758 72.3354 134.723 67.2238C127.688 62.1123 120.062 59.7031 113.45 61.6853C111.641 66.2307 119.531 70.1579 128.079 76.3683C136.623 82.5758 142.8 88.869 146.564 85.7441Z" fill="#FFAF10"/>
<path id="Vector_24" d="M128.079 76.3683C131.951 79.1812 135.326 82.0014 138.221 83.966C141.349 76.4716 139.443 70.6531 134.723 67.2236C130.001 63.7926 123.88 63.7794 117.719 69.0706C120.482 71.2162 124.207 73.5551 128.079 76.3683Z" fill="#FF860D"/>
<path id="Vector_25" d="M136.098 46.1335C136.078 48.1597 134.21 71.247 132.183 71.2293C130.155 71.2115 128.724 48.0913 128.74 46.0626C128.759 44.0333 130.42 42.3992 132.451 42.4197C134.484 42.4382 136.115 44.1025 136.098 46.1335Z" fill="#68AD27"/>
<path id="Vector_26" d="M129.034 51.5334C129.467 53.018 133.15 70.2588 131.668 70.6876C130.183 71.1204 124.084 54.5722 123.656 53.0885C123.227 51.6034 124.079 50.05 125.568 49.6199C127.047 49.1865 128.603 50.0469 129.034 51.5334Z" fill="#5C8729"/>
<path id="Vector_27" d="M142.865 48.3893C142.261 50.329 133.807 71.8918 131.865 71.2866C129.927 70.6808 135.242 48.1373 135.844 46.196C136.45 44.2606 138.511 43.1767 140.453 43.7817C142.389 44.386 143.474 46.4502 142.865 48.3893Z" fill="#7FCC2E"/>
<path id="Vector_28" d="M154.356 59.399C152.433 60.0425 131.053 68.9529 131.698 70.877C132.342 72.7999 154.772 67.0162 156.697 66.3743C158.621 65.729 159.66 63.6434 159.016 61.7205C158.369 59.7918 156.282 58.7549 154.356 59.399Z" fill="#68AD27"/>
<path id="Vector_29" d="M151.403 67.785C149.857 67.8322 132.32 69.6562 132.372 71.1993C132.42 72.7449 150.043 73.4326 151.586 73.3806C153.129 73.3286 154.343 72.0379 154.294 70.491C154.247 68.949 152.95 67.7359 151.403 67.785Z" fill="#5C8729"/>
<path id="Vector_30" d="M150.12 53.6602C148.463 54.8352 130.566 69.5375 131.74 71.1957C132.919 72.8548 152.715 60.8321 154.375 59.6597C156.027 58.4836 156.421 56.1889 155.247 54.5304C154.074 52.8754 151.775 52.4817 150.12 53.6602Z" fill="#7FCC2E"/>
<path id="Vector_31" d="M151.94 50.3048C150.645 52.0868 133.501 72.6485 131.721 71.3553C129.941 70.062 144.198 47.403 145.493 45.6211C146.787 43.8413 149.278 43.4464 151.058 44.7398C152.839 46.0332 153.233 48.5248 151.94 50.3048Z" fill="#5C8729"/>
<g id="Group_2">
<path id="Vector_32" d="M124.922 44.8231C125.355 45.1382 125.962 45.042 126.277 44.6084C126.592 44.1748 126.496 43.5678 126.063 43.2528C125.629 42.9377 125.022 43.0338 124.707 43.4675C124.392 43.9011 124.488 44.5081 124.922 44.8231Z" fill="#7FCC2E"/>
<path id="Vector_33" d="M149.199 78.9441C149.633 79.2592 150.24 79.1631 150.555 78.7294C150.87 78.2958 150.774 77.6888 150.34 77.3738C149.907 77.0587 149.3 77.1549 148.985 77.5885C148.669 78.0221 148.766 78.6291 149.199 78.9441Z" fill="#7FCC2E"/>
<path id="Vector_34" d="M123.214 47.2512C123.442 47.4173 123.762 47.3666 123.928 47.1381C124.094 46.9095 124.043 46.5896 123.815 46.4235C123.586 46.2575 123.266 46.3081 123.1 46.5367C122.934 46.7653 122.985 47.0852 123.214 47.2512Z" fill="#7FCC2E"/>
<path id="Vector_35" d="M156.141 69.0252C156.371 69.192 156.692 69.1411 156.859 68.9116C157.025 68.6821 156.974 68.3609 156.745 68.1941C156.515 68.0274 156.194 68.0783 156.027 68.3078C155.861 68.5373 155.912 68.8585 156.141 69.0252Z" fill="#7FCC2E"/>
<path id="Vector_36" d="M136.317 40.3447C137.138 40.9416 138.288 40.7595 138.885 39.938C139.482 39.1164 139.3 37.9665 138.478 37.3696C137.657 36.7728 136.507 36.9549 135.91 37.7764C135.313 38.598 135.495 39.7479 136.317 40.3447Z" fill="#7FCC2E"/>
</g>
<g id="Group_3">
<path id="Vector_37" d="M121.231 58.462C121.653 58.7686 122.243 58.675 122.55 58.2531C122.856 57.8312 122.763 57.2407 122.341 56.9342C121.919 56.6276 121.329 56.7212 121.022 57.1431C120.716 57.565 120.809 58.1555 121.231 58.462Z" fill="#5C8729"/>
<path id="Vector_38" d="M158.787 58.4344C159.448 58.9147 160.374 58.7682 160.854 58.1072C161.334 57.4462 161.188 56.521 160.527 56.0408C159.866 55.5605 158.94 55.7071 158.46 56.3681C157.98 57.0291 158.126 57.9542 158.787 58.4344Z" fill="#5C8729"/>
</g>
</g>
<defs>
<clipPath id="clip0_13_19">
<rect width="152.232" height="152.232" fill="white" transform="translate(89.4794) rotate(36)"/>
</clipPath>
</defs>
</svg>
